<svg width="32" height="32" viewBox="0 0 32 32" fill="none" xmlns="http://www.w3.org/2000/svg">
<path d="M17.6448 0C19.4447 0.00479975 20.3583 0.0143993 21.147 0.0367981L21.4574 0.0479975C21.8158 0.0607968 22.1694 0.076796 22.5966 0.095995C24.2989 0.175991 25.4604 0.444777 26.4796 0.839957C27.5355 1.24634 28.4251 1.79671 29.3146 2.68466C30.1282 3.48446 30.7577 4.45191 31.1593 5.51972C31.5545 6.53887 31.8233 7.70041 31.9033 9.40432C31.9225 9.8299 31.9385 10.1835 31.9513 10.5435L31.9609 10.8538C31.9849 11.641 31.9945 12.5546 31.9977 14.3545L31.9993 15.548V17.6439C32.0032 18.8109 31.9909 19.9779 31.9625 21.1445L31.9529 21.4549C31.9401 21.8149 31.9241 22.1685 31.9049 22.594C31.8249 24.298 31.5529 25.4579 31.1593 26.4786C30.7588 27.547 30.1292 28.5147 29.3146 29.3137C28.5146 30.127 27.5472 30.7564 26.4796 31.1584C25.4604 31.5536 24.2989 31.8224 22.5966 31.9024C22.2169 31.9202 21.8372 31.9362 21.4574 31.9504L21.147 31.96C20.3583 31.9824 19.4447 31.9936 17.6448 31.9968L16.4513 31.9984H14.357C13.1895 32.0024 12.0219 31.9901 10.8548 31.9616L10.5444 31.952C10.1646 31.9376 9.78486 31.921 9.40524 31.9024C7.70293 31.8224 6.54139 31.5536 5.52064 31.1584C4.45297 30.7574 3.48589 30.1278 2.68719 29.3137C1.8729 28.5142 1.24282 27.5467 0.84088 26.4786C0.4457 25.4595 0.176914 24.298 0.0969181 22.594C0.0790932 22.2144 0.0630938 21.8347 0.0489207 21.4549L0.0409213 21.1445C0.011438 19.9779 -0.00189604 18.8109 0.000923154 17.6439V14.3545C-0.00354216 13.1875 0.00819182 12.0205 0.0361215 10.8538L0.0473208 10.5435C0.0601202 10.1835 0.0761193 9.8299 0.0953183 9.40432C0.175314 7.70041 0.4441 6.54046 0.83928 5.51972C1.24104 4.45082 1.87238 3.48306 2.68879 2.68466C3.48729 1.87106 4.45372 1.24152 5.52064 0.839957C6.54139 0.444777 7.70133 0.175991 9.40524 0.095995C9.83082 0.076796 10.186 0.0607968 10.5444 0.0479975L10.8548 0.0383979C12.0214 0.00997182 13.1884 -0.0022954 14.3554 0.0015998L17.6448 0ZM16.0001 7.99959C13.8785 7.99959 11.8438 8.8424 10.3435 10.3426C8.84332 11.8428 8.00051 13.8776 8.00051 15.9992C8.00051 18.1208 8.84332 20.1555 10.3435 21.6557C11.8438 23.156 13.8785 23.9988 16.0001 23.9988C18.1217 23.9988 20.1565 23.156 21.6567 21.6557C23.1569 20.1555 23.9997 18.1208 23.9997 15.9992C23.9997 13.8776 23.1569 11.8428 21.6567 10.3426C20.1565 8.8424 18.1217 7.99959 16.0001 7.99959ZM16.0001 11.1994C16.6304 11.1993 17.2546 11.3234 17.837 11.5645C18.4193 11.8056 18.9485 12.1591 19.3943 12.6047C19.84 13.0503 20.1937 13.5794 20.435 14.1617C20.6763 14.7439 20.8006 15.3681 20.8007 15.9984C20.8008 16.6287 20.6767 17.2529 20.4356 17.8352C20.1945 18.4176 19.841 18.9468 19.3954 19.3926C18.9498 19.8383 18.4207 20.192 17.8384 20.4333C17.2561 20.6746 16.632 20.7988 16.0017 20.7989C14.7287 20.7989 13.5079 20.2932 12.6078 19.3931C11.7076 18.493 11.202 17.2722 11.202 15.9992C11.202 14.7262 11.7076 13.5054 12.6078 12.6052C13.5079 11.7051 14.7287 11.1994 16.0017 11.1994M24.4013 5.59971C23.8709 5.59971 23.3622 5.81042 22.9871 6.18547C22.6121 6.56052 22.4014 7.06921 22.4014 7.59961C22.4014 8.13002 22.6121 8.6387 22.9871 9.01375C23.3622 9.38881 23.8709 9.59951 24.4013 9.59951C24.9317 9.59951 25.4404 9.38881 25.8154 9.01375C26.1905 8.6387 26.4012 8.13002 26.4012 7.59961C26.4012 7.06921 26.1905 6.56052 25.8154 6.18547C25.4404 5.81042 24.9317 5.59971 24.4013 5.59971Z" fill="#D7B56D"/>
</svg>
