<svg width="34" height="34" viewBox="0 0 34 34" fill="none" xmlns="http://www.w3.org/2000/svg">
<path d="M33 9.88889V24.1111C33 26.4686 32.0635 28.7295 30.3965 30.3965C28.7295 32.0635 26.4686 33 24.1111 33H9.88889C7.53141 33 5.27049 32.0635 3.6035 30.3965C1.93651 28.7295 1 26.4686 1 24.1111V9.88889C1 7.53141 1.93651 5.27049 3.6035 3.6035C5.27049 1.93651 7.53141 1 9.88889 1H24.1111C26.4686 1 28.7295 1.93651 30.3965 3.6035C32.0635 5.27049 33 7.53141 33 9.88889Z" fill="#D7B56D" stroke="#D7B56D" stroke-width="1.5" stroke-linecap="round" stroke-linejoin="round"/>
<path d="M13.4444 17.0002C12.3896 17.0002 11.3584 17.313 10.4814 17.899C9.60432 18.485 8.92073 19.318 8.51706 20.2925C8.11339 21.2671 8.00778 22.3394 8.21356 23.374C8.41935 24.4085 8.9273 25.3589 9.67318 26.1047C10.4191 26.8506 11.3694 27.3586 12.4039 27.5644C13.4385 27.7701 14.5109 27.6645 15.4854 27.2609C16.4599 26.8572 17.2929 26.1736 17.8789 25.2965C18.465 24.4195 18.7778 23.3883 18.7778 22.3335V6.3335C19.3698 8.11127 21.6222 11.6668 25.8889 11.6668" fill="#D7B56D"/>
<path d="M13.4444 17.0002C12.3896 17.0002 11.3584 17.313 10.4814 17.899C9.60432 18.485 8.92073 19.318 8.51706 20.2925C8.11339 21.2671 8.00778 22.3394 8.21356 23.374C8.41935 24.4085 8.9273 25.3589 9.67318 26.1047C10.4191 26.8506 11.3694 27.3586 12.4039 27.5644C13.4385 27.7701 14.5109 27.6645 15.4854 27.2609C16.4599 26.8572 17.2929 26.1736 17.8789 25.2965C18.465 24.4195 18.7778 23.3883 18.7778 22.3335V6.3335C19.3698 8.11127 21.6222 11.6668 25.8889 11.6668" stroke="#0D0F10" stroke-width="3.5" stroke-linecap="square" stroke-linejoin="round"/>
</svg>
